<svg width="88" height="88" viewBox="0 0 88 88" fill="none" xmlns="http://www.w3.org/2000/svg">
<path d="M44 87.52C19.936 87.52 0.47998 68.064 0.47998 44C0.47998 19.936 19.936 0.480003 44 0.480003C68.064 0.480003 87.52 19.936 87.52 44C87.52 68.064 68.064 87.52 44 87.52ZM44 5.6C22.752 5.6 5.59998 22.752 5.59998 44C5.59998 65.248 22.752 82.4 44 82.4C65.248 82.4 82.4 65.248 82.4 44C82.4 22.752 65.248 5.6 44 5.6Z" fill="white"/>
<path d="M43.232 68.832L39.6479 65.248L60.896 44L39.6479 22.752L43.232 19.168L68.064 44L43.232 68.832Z" fill="white"/>
<path d="M20.96 41.44H64.48V46.56H20.96V41.44Z" fill="white"/>
</svg>
