<svg width="28" height="23" viewBox="0 0 28 23" fill="none" xmlns="http://www.w3.org/2000/svg">
<path d="M28 6.75098V18.1498C28.0001 19.312 27.5554 20.4301 26.7573 21.2749C25.9591 22.1197 24.8679 22.627 23.7076 22.6928L23.45 22.6998H4.55C3.38781 22.6999 2.26964 22.2552 1.42488 21.457C0.580113 20.6589 0.0727981 19.5677 0.00700016 18.4074L0 18.1498V6.75098L13.5128 13.8294C13.6631 13.9081 13.8303 13.9492 14 13.9492C14.1697 13.9492 14.3369 13.9081 14.4872 13.8294L28 6.75098Z" fill="#7D7D7E"/>
<path d="M4.54991 0.299805H23.4499C24.5777 0.299669 25.6654 0.718398 26.502 1.47478C27.3385 2.23116 27.8644 3.27128 27.9775 4.3934L13.9999 11.7154L0.0223064 4.3934C0.130839 3.31584 0.620176 2.31233 1.40236 1.56325C2.18454 0.814177 3.20826 0.368666 4.28951 0.306805L4.54991 0.299805H23.4499H4.54991Z" fill="#7D7D7E"/>
</svg>
