<svg width="284" height="148" viewBox="0 0 284 148" fill="none" xmlns="http://www.w3.org/2000/svg">
<path d="M166.096 58.32C169.68 58.32 172.496 59.184 174.544 60.912C176.592 62.64 177.616 64.96 177.616 67.872C177.616 70.976 176.592 73.36 174.544 75.024C172.496 76.656 169.696 77.472 166.144 77.472L165.472 77.856H158.656V90H152.128V58.32H166.096ZM165.328 72.816C167.184 72.816 168.56 72.448 169.456 71.712C170.384 70.944 170.848 69.776 170.848 68.208C170.848 66.64 170.384 65.488 169.456 64.752C168.56 63.984 167.184 63.6 165.328 63.6H158.656V72.816H165.328ZM169.216 74.208L179.488 90H172.048L163.552 76.128L169.216 74.208ZM194.748 90.48C192.22 90.48 190.012 89.984 188.124 88.992C186.268 88 184.828 86.576 183.804 84.72C182.78 82.864 182.268 80.624 182.268 78C182.268 75.376 182.78 73.136 183.804 71.28C184.828 69.424 186.252 68 188.076 67.008C189.932 66.016 192.044 65.52 194.412 65.52C196.844 65.52 198.908 66.016 200.604 67.008C202.3 67.968 203.596 69.296 204.492 70.992C205.388 72.656 205.836 74.56 205.836 76.704C205.836 77.344 205.82 77.952 205.788 78.528C205.756 79.104 205.708 79.616 205.644 80.064H186.492V75.504H202.764L199.596 76.656C199.596 74.64 199.132 73.088 198.204 72C197.308 70.912 196.028 70.368 194.364 70.368C193.148 70.368 192.092 70.656 191.196 71.232C190.332 71.808 189.676 72.672 189.228 73.824C188.78 74.944 188.556 76.368 188.556 78.096C188.556 79.792 188.796 81.2 189.276 82.32C189.788 83.408 190.492 84.224 191.388 84.768C192.316 85.312 193.42 85.584 194.7 85.584C196.108 85.584 197.244 85.312 198.108 84.768C198.972 84.224 199.644 83.472 200.124 82.512L205.356 84.528C204.844 85.776 204.06 86.848 203.004 87.744C201.98 88.64 200.748 89.328 199.308 89.808C197.9 90.256 196.38 90.48 194.748 90.48ZM225.089 74.688C225.089 73.312 224.689 72.24 223.889 71.472C223.121 70.704 222.097 70.32 220.817 70.32C219.633 70.32 218.593 70.624 217.697 71.232C216.801 71.84 216.145 72.848 215.729 74.256L210.113 72.528C210.657 70.416 211.841 68.72 213.665 67.44C215.521 66.16 218.001 65.52 221.105 65.52C223.217 65.52 225.057 65.856 226.625 66.528C228.193 67.168 229.409 68.144 230.273 69.456C231.169 70.768 231.617 72.416 231.617 74.4V84.144C231.617 85.36 232.193 85.968 233.345 85.968C233.889 85.968 234.401 85.888 234.881 85.728L234.497 89.808C233.665 90.224 232.625 90.432 231.377 90.432C230.257 90.432 229.249 90.24 228.353 89.856C227.457 89.472 226.753 88.896 226.241 88.128C225.729 87.328 225.473 86.336 225.473 85.152V84.96L226.625 84.768C226.433 85.984 225.905 87.024 225.041 87.888C224.177 88.72 223.121 89.36 221.873 89.808C220.657 90.256 219.393 90.48 218.081 90.48C216.449 90.48 215.041 90.24 213.857 89.76C212.673 89.248 211.761 88.512 211.121 87.552C210.481 86.592 210.161 85.408 210.161 84C210.161 82.208 210.737 80.752 211.889 79.632C213.041 78.48 214.689 77.696 216.833 77.28L225.857 75.456L225.809 79.536L220.049 80.688C218.961 80.912 218.129 81.216 217.553 81.6C217.009 81.952 216.737 82.544 216.737 83.376C216.737 84.176 217.025 84.784 217.601 85.2C218.209 85.616 218.929 85.824 219.761 85.824C220.433 85.824 221.089 85.744 221.729 85.584C222.369 85.424 222.945 85.168 223.457 84.816C223.969 84.464 224.369 83.984 224.657 83.376C224.945 82.768 225.089 82.032 225.089 81.168V74.688ZM249.774 65.52C251.918 65.52 253.726 65.84 255.198 66.48C256.702 67.088 257.902 67.936 258.798 69.024C259.726 70.08 260.382 71.264 260.766 72.576L254.622 74.784C254.302 73.344 253.758 72.256 252.99 71.52C252.222 70.784 251.182 70.416 249.87 70.416C248.654 70.416 247.614 70.704 246.75 71.28C245.886 71.824 245.23 72.672 244.782 73.824C244.334 74.944 244.11 76.352 244.11 78.048C244.11 79.744 244.334 81.152 244.782 82.272C245.262 83.392 245.934 84.224 246.798 84.768C247.694 85.312 248.734 85.584 249.918 85.584C250.878 85.584 251.694 85.424 252.366 85.104C253.038 84.752 253.582 84.256 253.998 83.616C254.446 82.976 254.75 82.208 254.91 81.312L260.862 83.232C260.51 84.672 259.854 85.936 258.894 87.024C257.934 88.112 256.702 88.96 255.198 89.568C253.694 90.176 251.95 90.48 249.966 90.48C247.502 90.48 245.326 89.984 243.438 88.992C241.55 88 240.094 86.576 239.07 84.72C238.046 82.864 237.534 80.624 237.534 78C237.534 75.376 238.046 73.136 239.07 71.28C240.094 69.424 241.534 68 243.39 67.008C245.246 66.016 247.374 65.52 249.774 65.52ZM274.468 58.656V82.176C274.468 83.328 274.756 84.176 275.332 84.72C275.94 85.232 276.756 85.488 277.78 85.488C278.58 85.488 279.284 85.376 279.892 85.152C280.5 84.896 281.044 84.56 281.524 84.144L282.58 88.512C281.812 89.12 280.852 89.6 279.7 89.952C278.548 90.304 277.332 90.48 276.052 90.48C274.452 90.48 273.028 90.24 271.78 89.76C270.564 89.28 269.604 88.512 268.9 87.456C268.228 86.4 267.892 84.992 267.892 83.232V60.48L274.468 58.656ZM282.148 66V70.896H263.476V66H282.148Z" fill="#7E7E81"/>
<path d="M73.9999 62.345C80.3516 62.345 85.5316 67.525 85.5316 74C85.5316 80.1667 80.3516 85.4083 73.9999 85.4083C67.6483 85.4083 62.4683 80.1667 62.4683 74C62.4683 67.525 67.6483 62.345 73.9999 62.345ZM45.4483 123.333C49.3333 125.677 57.8433 122.1 67.6483 112.85C64.4416 109.212 61.2966 105.265 58.3366 101.133C53.3676 100.654 48.4274 99.9133 43.5366 98.9133C40.3916 112.11 41.5633 121.175 45.4483 123.333ZM49.8266 87.9367L48.0383 84.7917C47.3599 86.58 46.6816 88.3683 46.2499 90.095C47.9149 90.465 49.7649 90.7733 51.6766 91.0817L49.8266 87.9367ZM90.1566 83.25L95.1516 74L90.1566 64.75C88.3066 61.4817 86.3333 58.5833 84.5449 55.685C81.2149 55.5 77.6999 55.5 73.9999 55.5C70.2999 55.5 66.7849 55.5 63.4549 55.685C61.6666 58.5833 59.6933 61.4817 57.8433 64.75L52.8482 74L57.8433 83.25C59.6933 86.5183 61.6666 89.4167 63.4549 92.315C66.7849 92.5 70.2999 92.5 73.9999 92.5C77.6999 92.5 81.2149 92.5 84.5449 92.315C86.3333 89.4167 88.3066 86.5183 90.1566 83.25ZM73.9999 41.81C72.8283 43.1667 71.5949 44.585 70.3616 46.25H77.6383C76.4049 44.585 75.1716 43.1667 73.9999 41.81ZM73.9999 106.19C75.1716 104.833 76.4049 103.415 77.6383 101.75H70.3616C71.5949 103.415 72.8283 104.833 73.9999 106.19ZM102.49 24.6667C98.6666 22.3233 90.1566 25.9 80.3516 35.15C83.5582 38.7883 86.7032 42.735 89.6632 46.8667C94.7199 47.36 99.7149 48.1 104.463 49.0867C107.608 35.89 106.437 26.825 102.49 24.6667ZM98.1733 60.0633L99.9616 63.2083C100.64 61.42 101.318 59.6317 101.75 57.905C100.085 57.535 98.2349 57.2267 96.3232 56.9183L98.1733 60.0633ZM107.115 16.5883C116.18 21.7683 117.167 35.3967 113.343 51.3067C129.007 55.9317 140.292 63.5783 140.292 74C140.292 84.4217 129.007 92.0683 113.343 96.6933C117.167 112.603 116.18 126.232 107.115 131.412C98.1116 136.592 85.8399 130.672 73.9999 119.387C62.1599 130.672 49.8883 136.592 40.8233 131.412C31.8199 126.232 30.8333 112.603 34.6566 96.6933C18.9933 92.0683 7.70825 84.4217 7.70825 74C7.70825 63.5783 18.9933 55.9317 34.6566 51.3067C30.8333 35.3967 31.8199 21.7683 40.8233 16.5883C49.8883 11.4083 62.1599 17.3283 73.9999 28.6133C85.8399 17.3283 98.1116 11.4083 107.115 16.5883ZM105.327 74C107.423 78.625 109.273 83.25 110.815 87.9367C123.765 84.0517 131.042 78.5017 131.042 74C131.042 69.4983 123.765 63.9483 110.815 60.0633C109.273 64.75 107.423 69.375 105.327 74ZM42.6733 74C40.5766 69.375 38.7266 64.75 37.1849 60.0633C24.2349 63.9483 16.9583 69.4983 16.9583 74C16.9583 78.5017 24.2349 84.0517 37.1849 87.9367C38.7266 83.25 40.5766 78.625 42.6733 74ZM98.1733 87.9367L96.3232 91.0817C98.2349 90.7733 100.085 90.465 101.75 90.095C101.318 88.3683 100.64 86.58 99.9616 84.7917L98.1733 87.9367ZM80.3516 112.85C90.1566 122.1 98.6666 125.677 102.49 123.333C106.437 121.175 107.608 112.11 104.463 98.9133C99.7149 99.9 94.7199 100.64 89.6632 101.133C86.7032 105.265 83.5582 109.212 80.3516 112.85ZM49.8266 60.0633L51.6766 56.9183C49.7649 57.2267 47.9149 57.535 46.2499 57.905C46.6816 59.6317 47.3599 61.42 48.0383 63.2083L49.8266 60.0633ZM67.6483 35.15C57.8433 25.9 49.3333 22.3233 45.4483 24.6667C41.5633 26.825 40.3916 35.89 43.5366 49.0867C48.4274 48.0867 53.3676 47.3457 58.3366 46.8667C61.2966 42.735 64.4416 38.7883 67.6483 35.15Z" fill="#7D7D81"/>
</svg>
