<svg width="336" height="148" viewBox="0 0 336 148" fill="none" xmlns="http://www.w3.org/2000/svg">
<path d="M176.696 57.84C179.576 57.84 182.104 58.336 184.28 59.328C186.456 60.32 188.312 61.792 189.848 63.744L186.152 68.016C184.84 66.352 183.4 65.136 181.832 64.368C180.296 63.568 178.504 63.168 176.456 63.168C175.112 63.168 173.992 63.344 173.096 63.696C172.232 64.048 171.592 64.512 171.176 65.088C170.792 65.664 170.6 66.304 170.6 67.008C170.6 67.872 170.936 68.608 171.608 69.216C172.28 69.792 173.432 70.272 175.064 70.656L180.968 72C184.104 72.704 186.344 73.76 187.688 75.168C189.064 76.544 189.752 78.336 189.752 80.544C189.752 82.624 189.208 84.416 188.12 85.92C187.032 87.392 185.512 88.528 183.56 89.328C181.608 90.096 179.368 90.48 176.84 90.48C174.632 90.48 172.6 90.224 170.744 89.712C168.92 89.168 167.288 88.432 165.848 87.504C164.408 86.576 163.208 85.504 162.248 84.288L165.992 79.824C166.728 80.848 167.64 81.76 168.728 82.56C169.816 83.36 171.048 84 172.424 84.48C173.832 84.928 175.304 85.152 176.84 85.152C178.152 85.152 179.256 85.008 180.152 84.72C181.08 84.4 181.768 83.968 182.216 83.424C182.696 82.848 182.936 82.16 182.936 81.36C182.936 80.528 182.648 79.824 182.072 79.248C181.528 78.64 180.504 78.176 179 77.856L172.568 76.416C170.712 75.968 169.112 75.392 167.768 74.688C166.456 73.952 165.448 73.024 164.744 71.904C164.072 70.752 163.736 69.392 163.736 67.824C163.736 65.936 164.248 64.24 165.272 62.736C166.296 61.232 167.768 60.048 169.688 59.184C171.64 58.288 173.976 57.84 176.696 57.84ZM195.347 90V55.488H201.923V70.08C202.691 68.544 203.747 67.408 205.091 66.672C206.435 65.904 207.955 65.52 209.651 65.52C211.315 65.52 212.787 65.84 214.067 66.48C215.379 67.12 216.403 68.096 217.139 69.408C217.907 70.688 218.291 72.304 218.291 74.256V90H211.715V76.176C211.715 74.096 211.315 72.672 210.515 71.904C209.715 71.104 208.691 70.704 207.443 70.704C206.515 70.704 205.619 70.928 204.755 71.376C203.923 71.792 203.235 72.496 202.691 73.488C202.179 74.448 201.923 75.728 201.923 77.328V90H195.347ZM238.745 74.688C238.745 73.312 238.345 72.24 237.545 71.472C236.777 70.704 235.753 70.32 234.473 70.32C233.289 70.32 232.249 70.624 231.353 71.232C230.457 71.84 229.801 72.848 229.385 74.256L223.769 72.528C224.313 70.416 225.497 68.72 227.321 67.44C229.177 66.16 231.657 65.52 234.761 65.52C236.873 65.52 238.713 65.856 240.281 66.528C241.849 67.168 243.065 68.144 243.929 69.456C244.825 70.768 245.273 72.416 245.273 74.4V84.144C245.273 85.36 245.849 85.968 247.001 85.968C247.545 85.968 248.057 85.888 248.537 85.728L248.153 89.808C247.321 90.224 246.281 90.432 245.033 90.432C243.913 90.432 242.905 90.24 242.009 89.856C241.113 89.472 240.409 88.896 239.897 88.128C239.385 87.328 239.129 86.336 239.129 85.152V84.96L240.281 84.768C240.089 85.984 239.561 87.024 238.697 87.888C237.833 88.72 236.777 89.36 235.529 89.808C234.313 90.256 233.049 90.48 231.737 90.48C230.105 90.48 228.697 90.24 227.513 89.76C226.329 89.248 225.417 88.512 224.777 87.552C224.137 86.592 223.817 85.408 223.817 84C223.817 82.208 224.393 80.752 225.545 79.632C226.697 78.48 228.345 77.696 230.489 77.28L239.513 75.456L239.465 79.536L233.705 80.688C232.617 80.912 231.785 81.216 231.209 81.6C230.665 81.952 230.393 82.544 230.393 83.376C230.393 84.176 230.681 84.784 231.257 85.2C231.865 85.616 232.585 85.824 233.417 85.824C234.089 85.824 234.745 85.744 235.385 85.584C236.025 85.424 236.601 85.168 237.113 84.816C237.625 84.464 238.025 83.984 238.313 83.376C238.601 82.768 238.745 82.032 238.745 81.168V74.688ZM261.606 90.48C259.622 90.48 257.846 89.984 256.278 88.992C254.742 88 253.526 86.576 252.63 84.72C251.766 82.864 251.334 80.64 251.334 78.048C251.334 75.392 251.798 73.136 252.726 71.28C253.654 69.392 254.902 67.968 256.47 67.008C258.07 66.016 259.862 65.52 261.846 65.52C263.958 65.52 265.702 66.128 267.078 67.344C268.454 68.56 269.35 70.128 269.766 72.048L269.142 72.816V55.488H275.718V90H269.814L269.382 82.704L270.198 83.088C269.974 84.592 269.462 85.904 268.662 87.024C267.862 88.112 266.854 88.96 265.638 89.568C264.422 90.176 263.078 90.48 261.606 90.48ZM263.526 85.44C264.678 85.44 265.67 85.152 266.502 84.576C267.334 83.968 267.974 83.088 268.422 81.936C268.902 80.784 269.142 79.408 269.142 77.808C269.142 76.272 268.918 74.976 268.47 73.92C268.022 72.832 267.382 72 266.55 71.424C265.718 70.848 264.742 70.56 263.622 70.56C261.83 70.56 260.422 71.2 259.398 72.48C258.406 73.728 257.91 75.568 257.91 78C257.91 80.432 258.406 82.288 259.398 83.568C260.39 84.816 261.766 85.44 263.526 85.44ZM293.524 65.52C295.668 65.52 297.476 65.84 298.948 66.48C300.452 67.088 301.652 67.936 302.548 69.024C303.476 70.08 304.132 71.264 304.516 72.576L298.372 74.784C298.052 73.344 297.508 72.256 296.74 71.52C295.972 70.784 294.932 70.416 293.62 70.416C292.404 70.416 291.364 70.704 290.5 71.28C289.636 71.824 288.98 72.672 288.532 73.824C288.084 74.944 287.86 76.352 287.86 78.048C287.86 79.744 288.084 81.152 288.532 82.272C289.012 83.392 289.684 84.224 290.548 84.768C291.444 85.312 292.484 85.584 293.668 85.584C294.628 85.584 295.444 85.424 296.116 85.104C296.788 84.752 297.332 84.256 297.748 83.616C298.196 82.976 298.5 82.208 298.66 81.312L304.612 83.232C304.26 84.672 303.604 85.936 302.644 87.024C301.684 88.112 300.452 88.96 298.948 89.568C297.444 90.176 295.7 90.48 293.716 90.48C291.252 90.48 289.076 89.984 287.188 88.992C285.3 88 283.844 86.576 282.82 84.72C281.796 82.864 281.284 80.624 281.284 78C281.284 75.376 281.796 73.136 282.82 71.28C283.844 69.424 285.284 68 287.14 67.008C288.996 66.016 291.124 65.52 293.524 65.52ZM309.722 90V66H315.626L316.01 73.2L315.194 72.432C315.578 70.864 316.186 69.568 317.018 68.544C317.85 67.52 318.858 66.768 320.042 66.288C321.258 65.776 322.586 65.52 324.026 65.52C325.69 65.52 327.162 65.84 328.442 66.48C329.754 67.12 330.778 68.096 331.514 69.408C332.282 70.688 332.666 72.304 332.666 74.256V90H326.09V76.128C326.09 74.08 325.69 72.672 324.89 71.904C324.09 71.104 323.05 70.704 321.77 70.704C320.874 70.704 319.994 70.928 319.13 71.376C318.298 71.792 317.61 72.48 317.066 73.44C316.554 74.4 316.298 75.68 316.298 77.28V90H309.722Z" fill="#7E7E81"/>
<path d="M137.017 72.668L72.668 137.017C71.559 138.243 70.9636 139.849 71.005 141.501C71.0464 143.154 71.7214 144.728 72.8904 145.897C74.0595 147.066 75.6331 147.741 77.2858 147.782C78.9385 147.824 80.544 147.228 81.77 146.119L146.119 81.77C147.228 80.5439 147.824 78.9385 147.782 77.2858C147.741 75.633 147.066 74.0594 145.897 72.8904C144.728 71.7214 143.154 71.0464 141.501 71.005C139.849 70.9636 138.243 71.559 137.017 72.668ZM124.147 1.88083L1.88086 124.147C0.771833 125.373 0.176446 126.979 0.217843 128.632C0.25924 130.284 0.934252 131.858 2.10328 133.027C3.2723 134.196 4.8459 134.871 6.49863 134.912C8.15136 134.954 9.75678 134.358 10.9829 133.249L133.249 10.9828C134.358 9.75675 134.954 8.15133 134.912 6.4986C134.871 4.84587 134.196 3.27227 133.027 2.10324C131.858 0.934222 130.284 0.259209 128.632 0.217812C126.979 0.176416 125.373 0.771802 124.147 1.88083Z" fill="#7D7E81"/>
</svg>
