<svg width="346" height="148" viewBox="0 0 346 148" fill="none" xmlns="http://www.w3.org/2000/svg">
<path d="M177.184 58.32V63.648H166.576V90H159.952V63.648H149.296V58.32H177.184ZM191.152 74.688C191.152 73.312 190.752 72.24 189.952 71.472C189.184 70.704 188.16 70.32 186.88 70.32C185.696 70.32 184.656 70.624 183.76 71.232C182.864 71.84 182.208 72.848 181.792 74.256L176.176 72.528C176.72 70.416 177.904 68.72 179.728 67.44C181.584 66.16 184.064 65.52 187.168 65.52C189.28 65.52 191.12 65.856 192.688 66.528C194.256 67.168 195.472 68.144 196.336 69.456C197.232 70.768 197.68 72.416 197.68 74.4V84.144C197.68 85.36 198.256 85.968 199.408 85.968C199.952 85.968 200.464 85.888 200.944 85.728L200.56 89.808C199.728 90.224 198.688 90.432 197.44 90.432C196.32 90.432 195.312 90.24 194.416 89.856C193.52 89.472 192.816 88.896 192.304 88.128C191.792 87.328 191.536 86.336 191.536 85.152V84.96L192.688 84.768C192.496 85.984 191.968 87.024 191.104 87.888C190.24 88.72 189.184 89.36 187.936 89.808C186.72 90.256 185.456 90.48 184.144 90.48C182.512 90.48 181.104 90.24 179.92 89.76C178.736 89.248 177.824 88.512 177.184 87.552C176.544 86.592 176.224 85.408 176.224 84C176.224 82.208 176.8 80.752 177.952 79.632C179.104 78.48 180.752 77.696 182.896 77.28L191.92 75.456L191.872 79.536L186.112 80.688C185.024 80.912 184.192 81.216 183.616 81.6C183.072 81.952 182.8 82.544 182.8 83.376C182.8 84.176 183.088 84.784 183.664 85.2C184.272 85.616 184.992 85.824 185.824 85.824C186.496 85.824 187.152 85.744 187.792 85.584C188.432 85.424 189.008 85.168 189.52 84.816C190.032 84.464 190.432 83.984 190.72 83.376C191.008 82.768 191.152 82.032 191.152 81.168V74.688ZM208.346 62.544C206.97 62.544 205.946 62.256 205.274 61.68C204.602 61.072 204.266 60.192 204.266 59.04C204.266 57.856 204.602 56.976 205.274 56.4C205.946 55.792 206.97 55.488 208.346 55.488C209.722 55.488 210.746 55.792 211.418 56.4C212.09 56.976 212.426 57.856 212.426 59.04C212.426 60.192 212.09 61.072 211.418 61.68C210.746 62.256 209.722 62.544 208.346 62.544ZM211.61 66V90H205.034V66H211.61ZM225.061 55.488V82.608C225.061 83.728 225.253 84.512 225.637 84.96C226.021 85.408 226.661 85.632 227.557 85.632C228.101 85.632 228.549 85.6 228.901 85.536C229.253 85.44 229.701 85.312 230.245 85.152L229.669 89.472C229.125 89.792 228.437 90.032 227.605 90.192C226.805 90.384 226.005 90.48 225.205 90.48C222.869 90.48 221.157 89.92 220.069 88.8C219.013 87.648 218.485 85.824 218.485 83.328V55.488H225.061ZM264.213 66H271.221L263.541 90H255.957L250.725 73.68L245.685 90H238.101L230.421 66H237.429L242.229 84.384L247.557 66H254.085L259.461 84.384L264.213 66ZM278.612 62.544C277.236 62.544 276.212 62.256 275.54 61.68C274.868 61.072 274.532 60.192 274.532 59.04C274.532 57.856 274.868 56.976 275.54 56.4C276.212 55.792 277.236 55.488 278.612 55.488C279.988 55.488 281.012 55.792 281.684 56.4C282.356 56.976 282.692 57.856 282.692 59.04C282.692 60.192 282.356 61.072 281.684 61.68C281.012 62.256 279.988 62.544 278.612 62.544ZM281.876 66V90H275.3V66H281.876ZM288.847 90V66H294.751L295.135 73.2L294.319 72.432C294.703 70.864 295.311 69.568 296.143 68.544C296.975 67.52 297.983 66.768 299.167 66.288C300.383 65.776 301.711 65.52 303.151 65.52C304.815 65.52 306.287 65.84 307.567 66.48C308.879 67.12 309.903 68.096 310.639 69.408C311.407 70.688 311.791 72.304 311.791 74.256V90H305.215V76.128C305.215 74.08 304.815 72.672 304.015 71.904C303.215 71.104 302.175 70.704 300.895 70.704C299.999 70.704 299.119 70.928 298.255 71.376C297.423 71.792 296.735 72.48 296.191 73.44C295.679 74.4 295.423 75.68 295.423 77.28V90H288.847ZM327.637 90.48C325.653 90.48 323.877 89.984 322.309 88.992C320.773 88 319.557 86.576 318.661 84.72C317.797 82.864 317.365 80.64 317.365 78.048C317.365 75.392 317.829 73.136 318.757 71.28C319.685 69.392 320.933 67.968 322.501 67.008C324.101 66.016 325.893 65.52 327.877 65.52C329.989 65.52 331.733 66.128 333.109 67.344C334.485 68.56 335.381 70.128 335.797 72.048L335.173 72.816V55.488H341.749V90H335.845L335.413 82.704L336.229 83.088C336.005 84.592 335.493 85.904 334.693 87.024C333.893 88.112 332.885 88.96 331.669 89.568C330.453 90.176 329.109 90.48 327.637 90.48ZM329.557 85.44C330.709 85.44 331.701 85.152 332.533 84.576C333.365 83.968 334.005 83.088 334.453 81.936C334.933 80.784 335.173 79.408 335.173 77.808C335.173 76.272 334.949 74.976 334.501 73.92C334.053 72.832 333.413 72 332.581 71.424C331.749 70.848 330.773 70.56 329.653 70.56C327.861 70.56 326.453 71.2 325.429 72.48C324.437 73.728 323.941 75.568 323.941 78C323.941 80.432 324.437 82.288 325.429 83.568C326.421 84.816 327.797 85.44 329.557 85.44Z" fill="#7E7E81"/>
<path d="M74.0046 29.6023C54.2709 29.6023 41.9418 39.4651 37.0046 59.1988C44.4023 49.3349 53.0384 45.636 62.9023 48.1023C68.5344 49.506 72.5593 53.5899 77.0167 58.1154C84.271 65.4773 92.6677 74 111.005 74C130.737 74 143.067 64.136 148.005 44.3977C140.605 54.2667 131.972 57.9674 122.106 55.5C116.475 54.0952 112.455 50.0124 107.991 45.4869C100.742 38.125 92.3474 29.6023 74.0046 29.6023ZM37.0046 74C17.2721 74 4.94183 83.864 0.00463867 103.602C7.40387 93.7333 16.0364 90.0326 25.9023 92.5C31.5344 93.9048 35.5593 97.9876 40.0167 102.513C47.271 109.875 55.6677 118.398 74.0046 118.398C93.7372 118.398 106.067 108.535 111.005 88.8012C103.605 98.6655 94.9717 102.364 85.1058 99.8977C79.4749 98.494 75.4546 94.4101 70.9914 89.8846C63.7418 82.5227 55.3474 74 37.0046 74Z" fill="#7D7E81"/>
</svg>
