<svg width="30" height="31" viewBox="0 0 30 31" fill="none" xmlns="http://www.w3.org/2000/svg">
<path d="M15 0.299805C6.72 0.299805 0 7.01981 0 15.2998C0 23.5798 6.72 30.2998 15 30.2998C23.28 30.2998 30 23.5798 30 15.2998C30 7.01981 23.28 0.299805 15 0.299805ZM21.96 10.4998C21.735 12.8698 20.76 18.6298 20.265 21.2848C20.055 22.4098 19.635 22.7848 19.245 22.8298C18.375 22.9048 17.715 22.2598 16.875 21.7048C15.555 20.8348 14.805 20.2948 13.53 19.4548C12.045 18.4798 13.005 17.9398 13.86 17.0698C14.085 16.8448 17.925 13.3498 18 13.0348C18.0104 12.9871 18.009 12.9376 17.996 12.8905C17.9829 12.8435 17.9585 12.8003 17.925 12.7648C17.835 12.6898 17.715 12.7198 17.61 12.7348C17.475 12.7648 15.375 14.1598 11.28 16.9198C10.68 17.3248 10.14 17.5348 9.66 17.5198C9.12 17.5048 8.1 17.2198 7.335 16.9648C6.39 16.6648 5.655 16.4998 5.715 15.9748C5.745 15.7048 6.12 15.4348 6.825 15.1498C11.205 13.2448 14.115 11.9848 15.57 11.3848C19.74 9.64481 20.595 9.34481 21.165 9.34481C21.285 9.34481 21.57 9.3748 21.75 9.5248C21.9 9.6448 21.945 9.80981 21.96 9.92981C21.945 10.0198 21.975 10.2898 21.96 10.4998Z" fill="#7D7D7E"/>
</svg>
