<svg width="243" height="148" viewBox="0 0 243 148" fill="none" xmlns="http://www.w3.org/2000/svg">
<path d="M138.214 28.4253L77.4318 137.113C77.1464 137.624 76.7302 138.05 76.2259 138.347C75.7216 138.645 75.1473 138.803 74.5618 138.805C73.9764 138.807 73.4008 138.654 72.8941 138.361C72.3874 138.067 71.9678 137.645 71.6783 137.136L9.69406 28.4345C9.38242 27.8891 9.23282 27.2661 9.2628 26.6387C9.29278 26.0112 9.5011 25.4053 9.86331 24.8921C10.2255 24.3789 10.7266 23.9796 11.3078 23.7412C11.8889 23.5027 12.526 23.435 13.1443 23.5459L73.9908 34.4239C74.3776 34.4949 74.7741 34.4949 75.1609 34.4239L134.736 23.5644C135.351 23.4518 135.987 23.5167 136.567 23.7514C137.148 23.9861 137.649 24.381 138.014 24.8901C138.378 25.3991 138.591 26.0013 138.626 26.6264C138.661 27.2515 138.518 27.8784 138.214 28.4253Z" fill="#7D7D81"/>
<mask id="path-2-inside-1_133_270" fill="white">
<path d="M102.971 9.28238L57.9975 18.093C57.6386 18.1655 57.3135 18.3543 57.0727 18.6303C56.8319 18.9062 56.6888 19.2538 56.6655 19.6193L53.8998 66.3503C53.8845 66.6066 53.9292 66.863 54.0304 67.0991C54.1316 67.3351 54.2865 67.5443 54.4827 67.71C54.679 67.8757 54.9111 67.9933 55.1608 68.0535C55.4104 68.1137 55.6707 68.1149 55.9209 68.0569L68.4408 65.1663C68.7105 65.1039 68.9916 65.1104 69.2581 65.1851C69.5247 65.2599 69.7682 65.4004 69.9662 65.5938C70.1642 65.7872 70.3104 66.0274 70.3914 66.2921C70.4724 66.5568 70.4855 66.8376 70.4295 67.1088L66.711 85.3266C66.6536 85.6071 66.6702 85.8976 66.759 86.1698C66.8478 86.4419 67.0058 86.6863 67.2176 86.879C67.4293 87.0716 67.6875 87.2059 67.9668 87.2686C68.2462 87.3313 68.537 87.3203 68.8108 87.2368L76.5438 84.8873C76.818 84.8033 77.1094 84.7923 77.3892 84.8552C77.669 84.9181 77.9275 85.0528 78.1395 85.2461C78.3514 85.4393 78.5093 85.6844 78.5977 85.9572C78.6861 86.2301 78.7019 86.5212 78.6435 86.802L72.7281 115.417C72.3581 117.207 74.74 118.183 75.7344 116.652L76.3958 115.625L113.049 42.4806C113.186 42.205 113.244 41.8964 113.216 41.5897C113.187 41.283 113.073 40.9904 112.887 40.7451C112.701 40.4997 112.45 40.3113 112.162 40.2011C111.874 40.091 111.561 40.0636 111.259 40.1219L98.3691 42.6055C98.0917 42.6586 97.8052 42.6396 97.5372 42.5504C97.2692 42.4612 97.0285 42.3046 96.8383 42.0958C96.648 41.887 96.5145 41.6329 96.4505 41.3577C96.3866 41.0826 96.3943 40.7956 96.4729 40.5243L104.881 11.359C104.96 11.0868 104.968 10.7988 104.904 10.5227C104.839 10.2466 104.705 9.99167 104.514 9.78257C104.322 9.57346 104.08 9.41718 103.811 9.32876C103.541 9.24034 103.254 9.22278 102.976 9.27775"/>
</mask>
<path d="M102.971 9.28238L57.9975 18.093C57.6386 18.1655 57.3135 18.3543 57.0727 18.6303C56.8319 18.9062 56.6888 19.2538 56.6655 19.6193L53.8998 66.3503C53.8845 66.6066 53.9292 66.863 54.0304 67.0991C54.1316 67.3351 54.2865 67.5443 54.4827 67.71C54.679 67.8757 54.9111 67.9933 55.1608 68.0535C55.4104 68.1137 55.6707 68.1149 55.9209 68.0569L68.4408 65.1663C68.7105 65.1039 68.9916 65.1104 69.2581 65.1851C69.5247 65.2599 69.7682 65.4004 69.9662 65.5938C70.1642 65.7872 70.3104 66.0274 70.3914 66.2921C70.4724 66.5568 70.4855 66.8376 70.4295 67.1088L66.711 85.3266C66.6536 85.6071 66.6702 85.8976 66.759 86.1698C66.8478 86.4419 67.0058 86.6863 67.2176 86.879C67.4293 87.0716 67.6875 87.2059 67.9668 87.2686C68.2462 87.3313 68.537 87.3203 68.8108 87.2368L76.5438 84.8873C76.818 84.8033 77.1094 84.7923 77.3892 84.8552C77.669 84.9181 77.9275 85.0528 78.1395 85.2461C78.3514 85.4393 78.5093 85.6844 78.5977 85.9572C78.6861 86.2301 78.7019 86.5212 78.6435 86.802L72.7281 115.417C72.3581 117.207 74.74 118.183 75.7344 116.652L76.3958 115.625L113.049 42.4806C113.186 42.205 113.244 41.8964 113.216 41.5897C113.187 41.283 113.073 40.9904 112.887 40.7451C112.701 40.4997 112.45 40.3113 112.162 40.2011C111.874 40.091 111.561 40.0636 111.259 40.1219L98.3691 42.6055C98.0917 42.6586 97.8052 42.6396 97.5372 42.5504C97.2692 42.4612 97.0285 42.3046 96.8383 42.0958C96.648 41.887 96.5145 41.6329 96.4505 41.3577C96.3866 41.0826 96.3943 40.7956 96.4729 40.5243L104.881 11.359C104.96 11.0868 104.968 10.7988 104.904 10.5227C104.839 10.2466 104.705 9.99167 104.514 9.78257C104.322 9.57346 104.08 9.41718 103.811 9.32876C103.541 9.24034 103.254 9.22278 102.976 9.27775" fill="#7D7E81"/>
<path d="M57.9975 18.093L57.8053 17.1116L57.7995 17.1128L57.9975 18.093ZM56.6655 19.6193L55.6675 19.5557L55.6673 19.5602L56.6655 19.6193ZM53.8998 66.3503L54.898 66.4097L54.898 66.4093L53.8998 66.3503ZM55.9209 68.0569L55.6959 67.0825L55.695 67.0827L55.9209 68.0569ZM68.4408 65.1663L68.6657 66.1406L68.6659 66.1406L68.4408 65.1663ZM70.4295 67.1088L69.4502 66.9066L69.4497 66.9088L70.4295 67.1088ZM66.711 85.3266L67.6907 85.5271L67.6908 85.5266L66.711 85.3266ZM68.8108 87.2368L68.5201 86.2799L68.5188 86.2803L68.8108 87.2368ZM76.5438 84.8873L76.8345 85.8441L76.8364 85.8435L76.5438 84.8873ZM78.6435 86.802L77.6644 86.5986L77.6642 86.5996L78.6435 86.802ZM72.7281 115.417L71.7489 115.214L71.7489 115.214L72.7281 115.417ZM75.7344 116.652L76.573 117.196L76.5751 117.193L75.7344 116.652ZM76.3958 115.625L77.2365 116.167L77.2656 116.121L77.2898 116.073L76.3958 115.625ZM113.049 42.4806L113.943 42.9286L113.944 42.9273L113.049 42.4806ZM111.259 40.1219L111.448 41.1038L111.448 41.1038L111.259 40.1219ZM98.3691 42.6055L98.5571 43.5877L98.5583 43.5874L98.3691 42.6055ZM96.4729 40.5243L97.4334 40.8026L97.4338 40.8013L96.4729 40.5243ZM104.881 11.359L103.921 11.0795L103.92 11.082L104.881 11.359ZM102.971 9.28238L102.779 8.30103L57.8053 17.1117L57.9975 18.093L58.1898 19.0743L103.163 10.2637L102.971 9.28238ZM57.9975 18.093L57.7995 17.1128C57.225 17.2288 56.7047 17.5311 56.3193 17.9727L57.0727 18.6303L57.8261 19.2878C57.9223 19.1776 58.0521 19.1022 58.1955 19.0732L57.9975 18.093ZM57.0727 18.6303L56.3193 17.9727C55.9339 18.4144 55.7048 18.9707 55.6675 19.5557L56.6655 19.6193L57.6635 19.6828C57.6728 19.5368 57.73 19.398 57.8261 19.2878L57.0727 18.6303ZM56.6655 19.6193L55.6673 19.5602L52.9015 66.2912L53.8998 66.3503L54.898 66.4093L57.6638 19.6783L56.6655 19.6193ZM53.8998 66.3503L52.9015 66.2908C52.877 66.7024 52.9489 67.1141 53.1114 67.4931L54.0304 67.0991L54.9495 66.705C54.9096 66.6119 54.892 66.5108 54.898 66.4097L53.8998 66.3503ZM54.0304 67.0991L53.1114 67.4931C53.2739 67.8721 53.5225 68.208 53.8376 68.474L54.4827 67.71L55.1279 66.9459C55.0505 66.8806 54.9894 66.7981 54.9495 66.705L54.0304 67.0991ZM54.4827 67.71L53.8376 68.474C54.1526 68.74 54.5254 68.9289 54.9263 69.0256L55.1608 68.0535L55.3953 67.0814C55.2968 67.0576 55.2053 67.0113 55.1279 66.9459L54.4827 67.71ZM55.1608 68.0535L54.9263 69.0256C55.3272 69.1223 55.745 69.1242 56.1468 69.031L55.9209 68.0569L55.695 67.0827C55.5964 67.1056 55.4937 67.1051 55.3953 67.0814L55.1608 68.0535ZM55.9209 68.0569L56.1459 69.0312L68.6657 66.1406L68.4408 65.1663L68.2158 64.1919L55.6959 67.0825L55.9209 68.0569ZM68.4408 65.1663L68.6659 66.1406C68.7723 66.116 68.8831 66.1186 68.9882 66.148L69.2581 65.1851L69.528 64.2223C69.1 64.1023 68.6487 64.0919 68.2156 64.1919L68.4408 65.1663ZM69.2581 65.1851L68.9882 66.148C69.0933 66.1775 69.1894 66.2329 69.2674 66.3092L69.9662 65.5938L70.6649 64.8784C70.347 64.5679 69.956 64.3422 69.528 64.2223L69.2581 65.1851ZM69.9662 65.5938L69.2674 66.3092C69.3455 66.3855 69.4032 66.4802 69.4351 66.5846L70.3914 66.2921L71.3477 65.9996C71.2177 65.5746 70.9829 65.189 70.6649 64.8784L69.9662 65.5938ZM70.3914 66.2921L69.4351 66.5846C69.4671 66.6889 69.4722 66.7997 69.4502 66.9066L70.4295 67.1088L71.4089 67.3109C71.4987 66.8756 71.4777 66.4247 71.3477 65.9996L70.3914 66.2921ZM70.4295 67.1088L69.4497 66.9088L65.7312 85.1266L66.711 85.3266L67.6908 85.5266L71.4093 67.3087L70.4295 67.1088ZM66.711 85.3266L65.7313 85.1262C65.6392 85.5765 65.6657 86.043 65.8083 86.48L66.759 86.1698L67.7096 85.8596C67.6746 85.7522 67.6681 85.6377 67.6907 85.5271L66.711 85.3266ZM66.759 86.1698L65.8083 86.48C65.9509 86.917 66.2046 87.3094 66.5447 87.6187L67.2176 86.879L67.8905 86.1392C67.807 86.0633 67.7447 85.9669 67.7096 85.8596L66.759 86.1698ZM67.2176 86.879L66.5447 87.6187C66.8847 87.928 67.2993 88.1436 67.7477 88.2443L67.9668 87.2686L68.186 86.2929C68.0758 86.2682 67.974 86.2152 67.8905 86.1392L67.2176 86.879ZM67.9668 87.2686L67.7477 88.2443C68.1962 88.345 68.6632 88.3274 69.1028 88.1932L68.8108 87.2368L68.5188 86.2803C68.4108 86.3133 68.2961 86.3176 68.186 86.2929L67.9668 87.2686ZM68.8108 87.2368L69.1015 88.1936L76.8345 85.8441L76.5438 84.8873L76.2531 83.9304L68.5201 86.2799L68.8108 87.2368ZM76.5438 84.8873L76.8364 85.8435C76.9445 85.8104 77.0594 85.806 77.1698 85.8308L77.3892 84.8552L77.6086 83.8796C77.1593 83.7785 76.6915 83.7963 76.2511 83.931L76.5438 84.8873ZM77.3892 84.8552L77.1698 85.8308C77.2801 85.8557 77.3821 85.9088 77.4657 85.985L78.1395 85.2461L78.8133 84.5072C78.473 84.1969 78.0578 83.9806 77.6086 83.8796L77.3892 84.8552ZM78.1395 85.2461L77.4657 85.985C77.5492 86.0612 77.6115 86.1579 77.6464 86.2654L78.5977 85.9572L79.549 85.6491C79.4071 85.211 79.1535 84.8174 78.8133 84.5072L78.1395 85.2461ZM78.5977 85.9572L77.6464 86.2654C77.6812 86.373 77.6874 86.4878 77.6644 86.5986L78.6435 86.802L79.6226 87.0054C79.7163 86.5546 79.6909 86.0871 79.549 85.6491L78.5977 85.9572ZM78.6435 86.802L77.6642 86.5996L71.7489 115.214L72.7281 115.417L73.7074 115.619L79.6228 87.0044L78.6435 86.802ZM72.7281 115.417L71.7489 115.214C71.1541 118.091 74.9787 119.651 76.573 117.196L75.7344 116.652L74.8958 116.107C74.5014 116.714 73.5622 116.322 73.7074 115.619L72.7281 115.417ZM75.7344 116.652L76.5751 117.193L77.2365 116.167L76.3958 115.625L75.5551 115.083L74.8937 116.11L75.7344 116.652ZM76.3958 115.625L77.2898 116.073L113.943 42.9286L113.049 42.4806L112.155 42.0326L75.5017 115.177L76.3958 115.625ZM113.049 42.4806L113.944 42.9273C114.165 42.4848 114.257 41.9893 114.211 41.4968L113.216 41.5897L112.22 41.6826C112.231 41.8036 112.208 41.9253 112.154 42.034L113.049 42.4806ZM113.216 41.5897L114.211 41.4968C114.165 41.0044 113.983 40.5346 113.684 40.1406L112.887 40.7451L112.09 41.3495C112.164 41.4463 112.209 41.5617 112.22 41.6826L113.216 41.5897ZM112.887 40.7451L113.684 40.1406C113.385 39.7466 112.981 39.4441 112.519 39.2672L112.162 40.2011L111.804 41.135C111.918 41.1785 112.017 41.2528 112.09 41.3495L112.887 40.7451ZM112.162 40.2011L112.519 39.2672C112.058 39.0904 111.555 39.0463 111.07 39.14L111.259 40.1219L111.448 41.1038C111.568 41.0808 111.691 41.0916 111.804 41.135L112.162 40.2011ZM111.259 40.1219L111.07 39.1399L98.1799 41.6236L98.3691 42.6055L98.5583 43.5874L111.448 41.1038L111.259 40.1219ZM98.3691 42.6055L98.1812 41.6233C98.0717 41.6443 97.9588 41.6368 97.8531 41.6016L97.5372 42.5504L97.2213 43.4992C97.6517 43.6425 98.1116 43.6729 98.5571 43.5877L98.3691 42.6055ZM97.5372 42.5504L97.8531 41.6016C97.7474 41.5664 97.6525 41.5047 97.5775 41.4223L96.8383 42.0958L96.0991 42.7693C96.4046 43.1046 96.791 43.3559 97.2213 43.4992L97.5372 42.5504ZM96.8383 42.0958L97.5775 41.4223C97.5024 41.34 97.4498 41.2398 97.4246 41.1313L96.4505 41.3577L95.4765 41.5842C95.5792 42.026 95.7936 42.434 96.0991 42.7693L96.8383 42.0958ZM96.4505 41.3577L97.4246 41.1313C97.3993 41.0227 97.4024 40.9096 97.4334 40.8026L96.4729 40.5243L95.5124 40.2459C95.3862 40.6816 95.3738 41.1424 95.4765 41.5842L96.4505 41.3577ZM96.4729 40.5243L97.4338 40.8013L105.842 11.636L104.881 11.359L103.92 11.082L95.512 40.2472L96.4729 40.5243ZM104.881 11.359L105.841 11.6385C105.969 11.2014 105.981 10.7389 105.878 10.2956L104.904 10.5227L103.93 10.7497C103.955 10.8586 103.952 10.9722 103.921 11.0795L104.881 11.359ZM104.904 10.5227L105.878 10.2956C105.774 9.85228 105.559 9.44303 105.251 9.10729L104.514 9.78257L103.776 10.4578C103.852 10.5403 103.905 10.6408 103.93 10.7497L104.904 10.5227ZM104.514 9.78257L105.251 9.10729C104.944 8.77154 104.555 8.5206 104.123 8.37863L103.811 9.32876L103.499 10.2789C103.605 10.3138 103.701 10.3754 103.776 10.4578L104.514 9.78257ZM103.811 9.32876L104.123 8.37863C103.69 8.23667 103.228 8.20846 102.782 8.29674L102.976 9.27775L103.17 10.2588C103.279 10.2371 103.393 10.244 103.499 10.2789L103.811 9.32876Z" fill="#707070" mask="url(#path-2-inside-1_133_270)"/>
<path d="M179.488 58.32L167.968 90H160.24L148.672 58.32H155.68L162.352 78.48L164.176 84.72L165.952 78.528L172.672 58.32H179.488ZM186.924 62.544C185.548 62.544 184.524 62.256 183.852 61.68C183.18 61.072 182.844 60.192 182.844 59.04C182.844 57.856 183.18 56.976 183.852 56.4C184.524 55.792 185.548 55.488 186.924 55.488C188.3 55.488 189.324 55.792 189.996 56.4C190.668 56.976 191.004 57.856 191.004 59.04C191.004 60.192 190.668 61.072 189.996 61.68C189.324 62.256 188.3 62.544 186.924 62.544ZM190.188 66V90H183.612V66H190.188ZM205.655 58.656V82.176C205.655 83.328 205.943 84.176 206.519 84.72C207.127 85.232 207.943 85.488 208.967 85.488C209.767 85.488 210.471 85.376 211.079 85.152C211.687 84.896 212.231 84.56 212.711 84.144L213.767 88.512C212.999 89.12 212.039 89.6 210.887 89.952C209.735 90.304 208.519 90.48 207.239 90.48C205.639 90.48 204.215 90.24 202.967 89.76C201.751 89.28 200.791 88.512 200.087 87.456C199.415 86.4 199.079 84.992 199.079 83.232V60.48L205.655 58.656ZM213.335 66V70.896H194.663V66H213.335ZM228.92 90.48C226.392 90.48 224.184 89.984 222.296 88.992C220.44 88 219 86.576 217.976 84.72C216.952 82.864 216.44 80.624 216.44 78C216.44 75.376 216.952 73.136 217.976 71.28C219 69.424 220.424 68 222.248 67.008C224.104 66.016 226.216 65.52 228.584 65.52C231.016 65.52 233.08 66.016 234.776 67.008C236.472 67.968 237.768 69.296 238.664 70.992C239.56 72.656 240.008 74.56 240.008 76.704C240.008 77.344 239.992 77.952 239.96 78.528C239.928 79.104 239.88 79.616 239.816 80.064H220.664V75.504H236.936L233.768 76.656C233.768 74.64 233.304 73.088 232.376 72C231.48 70.912 230.2 70.368 228.536 70.368C227.32 70.368 226.264 70.656 225.368 71.232C224.504 71.808 223.848 72.672 223.4 73.824C222.952 74.944 222.728 76.368 222.728 78.096C222.728 79.792 222.968 81.2 223.448 82.32C223.96 83.408 224.664 84.224 225.56 84.768C226.488 85.312 227.592 85.584 228.872 85.584C230.28 85.584 231.416 85.312 232.28 84.768C233.144 84.224 233.816 83.472 234.296 82.512L239.528 84.528C239.016 85.776 238.232 86.848 237.176 87.744C236.152 88.64 234.92 89.328 233.48 89.808C232.072 90.256 230.552 90.48 228.92 90.48Z" fill="#7E7E81"/>
</svg>
