<svg width="24" height="24" viewBox="0 0 24 24" fill="none" xmlns="http://www.w3.org/2000/svg">
<path d="M2.325 2.325C0.75 3.915 0.75 6.4575 0.75 11.55V12.45C0.75 17.535 0.75 20.0775 2.325 21.675C3.915 23.25 6.4575 23.25 11.55 23.25H12.45C17.535 23.25 20.0775 23.25 21.675 21.675C23.25 20.085 23.25 17.5425 23.25 12.45V11.55C23.25 6.465 23.25 3.9225 21.675 2.325C20.085 0.75 17.5425 0.75 12.45 0.75H11.55C6.465 0.75 3.9225 0.75 2.325 2.325ZM4.545 7.5975H7.125C7.2075 11.8875 9.0975 13.7025 10.5975 14.0775V7.5975H13.02V11.295C14.4975 11.1375 16.0575 9.45 16.5825 7.59H18.9975C18.8004 8.55277 18.407 9.46459 17.8418 10.2685C17.2766 11.0724 16.5518 11.7512 15.7125 12.2625C16.6493 12.7286 17.4766 13.388 18.1398 14.1973C18.803 15.0066 19.2871 15.9474 19.56 16.9575H16.8975C16.3275 15.18 14.9025 13.8 13.02 13.6125V16.9575H12.72C7.59 16.9575 4.665 13.4475 4.545 7.5975Z" fill="#7D7D7E"/>
</svg>
